<svg viewBox="-0.75 -0.75 24 24" fill="none" xmlns="http://www.w3.org/2000/svg" id="Star-Rainbow--Streamline-Solar-Ar" height="24" width="24">
  <desc>
    Star Rainbow Streamline Icon: https://streamlinehq.com
  </desc>
  <path d="m14.01225 2.9193937500000002 -0.252375 0.6562875 0.252375 -0.6562875Zm1.5326250000000001 -0.08086875 -0.312 -0.630103125 0.312 0.630103125Zm-4.50946875 2.01343125 -0.6984375 0.08072812500000001 0 0.000009375 0.6984375 -0.0807375Zm2.6310937500000002 -2.06548125 0.252375 -0.6562875 -0.252375 0.6562875Zm-3.04228125 3.9148781249999995 0.5376562500000001 0.45306562499999997 -0.5376562500000001 -0.45306562499999997Zm0.45403125 -1.4787375 0.6985312499999999 -0.08072812500000001 0 -0.000009375 -0.6985312499999999 0.0807375Zm0.35625 4.832915625 -0.11287499999999999 0.6939375 0.11287499999999999 -0.6939375Zm-1.05675 -3.06166875 -0.53775 -0.45306562499999997 0.53775 0.45306562499999997Zm2.6769374999999997 3.9546375 0.5984999999999999 -0.369 -0.5984999999999999 0.369Zm-1.25203125 -0.8330624999999999 0.11296874999999999 -0.69403125 -0.11296874999999999 0.69403125Zm4.72959375 0.97340625 0.6151875 0.3405 -0.6151875 -0.3405Zm-3.28425 0.17334375000000002 -0.5984999999999999 0.36890625 0.5984999999999999 -0.36890625Zm4.69678125 -1.47084375 -0.18300000000000002 -0.67888125 0.18300000000000002 0.67888125Zm-1.2278437500000001 0.9639375 -0.6151875 -0.3405 0.6151875 0.3405Zm2.56678125 -4.23129375 -0.50859375 0.485475 0.50859375 -0.485475Zm-0.9729375 3.16873125 0.18300000000000002 0.6789375 -0.18300000000000002 -0.6789375Zm0.22584375 -4.8636 0.70040625 0.061359374999999994 -0.70040625 -0.061359374999999994Zm0.49312500000000004 1.428759375 0.5086875 -0.485465625 -0.5086875 0.485465625Zm-0.4603125 -1.8034125 -0.7005 -0.061359374999999994 0.7005 0.061359374999999994Zm-2.6829375 -1.7851125 0.312 0.630103125 -0.312 -0.630103125ZM13.10559375 18.7310625l0.7015312499999999 0.04715625 -0.7015312499999999 -0.04715625Zm-11.145468750000001 0.048375 0.66054375 0.24103125 -0.66054375 -0.24103125ZM17.868937499999998 4.39310625l-0.0328125 0.3746625 1.40090625 0.12270937500000001 0.0328125 -0.3746625 -1.40090625 -0.12270937500000001Zm0.65221875 2.3502375 0.25396874999999997 0.26611875 1.01728125 -0.9709406250000001 -0.25396874999999997 -0.266109375 -1.01728125 0.97093125Zm-0.393375 2.270475 -0.36600000000000005 0.09864374999999999 0.36600000000000005 1.3578187499999999 0.36600000000000005 -0.098625 -0.36600000000000005 -1.3578375Zm-2.02603125 1.4009624999999999 -0.1846875 0.3335625 1.230375 0.681 0.1846875 -0.3335625 -1.230375 -0.681Zm-2.2551562499999998 0.47840625 -0.19340625 -0.3136875 -1.1970937499999998 0.73790625 0.19340625 0.3136875 1.1970937499999998 -0.73790625ZM11.915625 9.42140625l-0.36815625 -0.0598875 -0.22584375 1.38795 0.3680625 0.05990625 0.22593749999999999 -1.38796875Zm-1.00021875 -1.97446875 0.24646875000000001 -0.29251875 -1.0753125000000001 -0.906140625 -0.24656250000000002 0.29251875 1.07540625 0.906140625Zm0.861375 -2.305059375 -0.04284375 -0.37066875 -1.39696875 0.16148437499999999 0.04284375 0.37066875 1.39696875 -0.16148437499999999Zm1.6374374999999999 -1.69910625 0.34565625 0.132909375 0.50465625 -1.3125843750000001 -0.34565625 -0.132909375 -0.50465625 1.3125843750000001Zm2.44265625 0.025865625 0.341625 -0.16918125 -0.624 -1.26020625 -0.341625 0.169171875 0.624 1.260215625Zm-2.097 0.10704375000000001c0.32315625000000003 0.1242375 0.67490625 0.27455625 1.05909375 0.2542875l-0.07415625 -1.4042999999999999c-0.0005625 0.000028125 -0.001125 0.000046875 -0.00225 -0.000009375 -0.00121875 -0.000065625 -0.004218749999999999 -0.0002625 -0.00946875 -0.001040625 -0.0110625 -0.001640625 -0.032531250000000005 -0.0058125 -0.07078125 -0.017015625 -0.08596875000000001 -0.025228125 -0.19753125 -0.067528125 -0.39778125000000003 -0.14450625l-0.50465625 1.3125843750000001Zm1.4729999999999999 -1.367259375c-0.19715624999999998 0.0976125 -0.30975 0.152840625 -0.39749999999999996 0.188109375 -0.03946875 0.015871875 -0.06271875 0.02296875 -0.07565625 0.026259375 -0.0061875 0.001575 -0.00984375 0.002240625 -0.01171875 0.0025218750000000002 -0.0016875 0.0002625 -0.002625 0.000328125 -0.0031875 0.00035625l0.07415625 1.4042999999999999c0.379125 -0.02000625 0.71765625 -0.20275312499999998 1.03790625 -0.36133125l-0.624 -1.260215625ZM11.7339375 4.77121875c-0.08559375000000001 -0.7398750000000001 -0.13856249999999998 -1.2145875 -0.12740625 -1.55075625 0.00534375 -0.16012500000000002 0.024937499999999998 -0.243478125 0.03975 -0.28348124999999996 0.003375 -0.00898125 0.006093749999999999 -0.01483125 0.007875 -0.018243750000000003 0.00178125 -0.00335625 0.0028125 -0.004818749999999999 0.00290625 -0.00500625 0.00009375 -0.000159375 -0.00009375 0.00007500000000000001 -0.00028125 0.00035625 -0.00028125 0.000253125 0.0001875 -0.00030000000000000003 0.00196875 -0.001678125l-0.86840625 -1.106128125c-0.463125 0.36360000000000003 -0.57346875 0.890484375 -0.5893125 1.367615625 -0.015375000000000002 0.466078125 0.05578125 1.06591875 0.1359375 1.7587875l1.39696875 -0.161465625Zm2.1849375 -2.64103125c-0.6456562499999999 -0.24824062500000002 -1.20609375 -0.46576875 -1.65928125 -0.565453125 -0.46575 -0.102421875 -1.0039687499999999 -0.12365625 -1.46925 0.241546875l0.86840625 1.106128125c0.00253125 -0.002034375 0.0020625 -0.00129375 0.000375 -0.000646875 -0.001125 0.000440625 0.00459375 -0.0021375 0.02165625 -0.00405 0.03965625 -0.004425 0.12253125000000001 -0.003459375 0.27675 0.03045 0.3241875 0.071315625 0.76603125 0.23909999999999998 1.4566875000000001 0.504609375l0.50465625 -1.3125843750000001ZM11.161875 7.15441875c0.23203125 -0.27530625 0.488625 -0.5594250000000001 0.59990625 -0.921665625l-1.3443749999999999 -0.412771875c-0.00028125 0.00106875 -0.00159375 0.0055125 -0.0075 0.016528125 -0.006656250000000001 0.01250625 -0.0195 0.0339 -0.044625000000000005 0.068821875 -0.0556875 0.0774375 -0.13659374999999999 0.174271875 -0.27871875 0.34294687500000004l1.0753125000000001 0.906140625Zm-0.7820625000000001 -1.851065625c0.02475 0.21440625 0.03815625 0.33461250000000003 0.041249999999999995 0.42573750000000005 0.00140625 0.040640625 0.0001875 0.0634875 -0.001125 0.07576875 -0.00103125 0.010575 -0.00215625 0.014118750000000001 -0.00253125 0.015121874999999998l1.3443749999999999 0.412771875c0.11240625000000001 -0.36630937500000005 0.055218750000000004 -0.742809375 0.015 -1.090865625l-1.39696875 0.161465625Zm1.16765625 4.058165625c-0.73546875 -0.11969062500000001 -1.2053437500000002 -0.19813125 -1.5203437499999999 -0.299484375 -0.30909375 -0.09946875 -0.26015625000000003 -0.156309375 -0.238125 -0.09243749999999999l-1.329253125 0.458840625c0.19779375 0.573 0.6903468749999999 0.82865625 1.136596875 0.9722812499999999 0.4404375 0.14165625 1.0378125 0.23690624999999998 1.72528125 0.34875l0.22584375 -1.38795ZM9.84 6.540796875c-0.46153125 0.5478 -0.8593124999999999 1.0171406250000001 -1.108546875 1.4163375 -0.24947812500000002 0.3996 -0.4660875 0.908146875 -0.27170625000000004 1.4713031250000002l1.329253125 -0.458840625c0.01865625 0.053990625 -0.047625 0.02529375 0.13528125000000002 -0.267721875 0.1831875 -0.29341875 0.49996875 -0.6720843750000001 0.9911249999999999 -1.2549375l-1.07540625 -0.906140625Zm3.8131875 4.038703125c-0.17878125 -0.28996875 -0.36946875 -0.62803125 -0.691125 -0.84196875l-0.77896875 1.17075c-0.009375 -0.00628125 0.0016875 -0.0043125 0.046218749999999996 0.056249999999999994 0.052312500000000005 0.07078125 0.11465625 0.171 0.22678125 0.352875l1.1970937499999998 -0.73790625Zm-1.9634999999999998 0.229875c0.2131875 0.034687499999999996 0.33206250000000004 0.054656249999999997 0.41953125 0.07621875 0.0755625 0.01875 0.082875 0.028687499999999998 0.073875 0.0226875l0.77896875 -1.17075c-0.3196875 -0.21281250000000002 -0.70575 -0.260625 -1.0464375000000001 -0.316125l-0.22593749999999999 1.38796875Zm4.227375 -0.06103125c-0.367875 0.66478125 -0.6076875 1.0944375 -0.81675 1.370625 -0.10021875 0.132375 -0.166875 0.19275 -0.204375 0.2188125 -0.01640625 0.011437500000000001 -0.02353125 0.0136875 -0.022406250000000003 0.013312500000000001 0.000375 -0.00009375 0.0015 -0.00046875 0.003 -0.00075 0.00159375 -0.000375 0.00234375 -0.000375 0.00178125 -0.000375l0.07415625 1.40428125c0.5883750000000001 -0.031031249999999996 0.9825 -0.4078125 1.2691875 -0.78665625 0.28434375 -0.37575 0.5799375 -0.9133125 0.92578125 -1.5382500000000001l-1.230375 -0.681Zm-3.2675625 0.88275c0.36074999999999996 0.58528125 0.6736875 1.09678125 0.9724687500000001 1.4475 0.3061875 0.35953125 0.729 0.7074375 1.3305 0.67565625l-0.07415625 -1.40428125c-0.00046875 0.00009375 0.00084375 0 0.0035625 0.0001875 0.0028125 0.00028125 0.005718750000000001 0.00084375 0.00825 0.0015 0.00590625 0.00140625 0.0039375 0.0020625 -0.0075 -0.00459375 -0.0279375 -0.01621875 -0.08962500000000001 -0.06225 -0.19012500000000002 -0.18037499999999998 -0.21159375000000002 -0.24834375000000003 -0.4591875 -0.6462187500000001 -0.84590625 -1.2735l-1.1970937499999998 0.73790625Zm5.11228125 -2.51863125c-0.3455625 0.09315000000000001 -0.7153125 0.179315625 -1.01446875 0.414225l0.8683125 1.1060625c0.000375 -0.00028125 0.015 -0.01378125 0.09225 -0.04115625 0.0886875 -0.031593750000000004 0.2086875 -0.06440625 0.41990625000000004 -0.12131249999999999l-0.36600000000000005 -1.3578187499999999Zm-0.42965624999999996 1.9833187500000002c0.23118750000000002 -0.41775 0.26137499999999997 -0.44559375 0.2835 -0.46303125l-0.8683125 -1.1060625c-0.29840625000000004 0.2341875 -0.47109375 0.5728125 -0.6455625 0.88809375l1.230375 0.681Zm1.4429999999999998 -4.08631875c0.5079374999999999 0.532125 0.82940625 0.87185625 1.01615625 1.139709375 0.0886875 0.1272 0.1183125 0.199490625 0.12759375 0.232528125 0.00375 0.013725000000000001 0.003 0.016884375 0.003 0.0125625 0 -0.004865625 0.00103125 -0.008165625000000001 0.0005625 -0.006796875l1.3442812499999999 0.412771875c0.17578125 -0.57226875 -0.05071875 -1.066359375 -0.3219375 -1.455346875 -0.263625 -0.37817812500000003 -0.6785625 -0.8098968750000001 -1.1523750000000001 -1.3063687499999999l-1.01728125 0.9709406250000001Zm-0.28134375 3.36219375c0.685125 -0.1846875 1.2752812500000001 -0.34190625 1.7070937499999999 -0.52809375 0.43753125 -0.188625 0.89334375 -0.48154687500000004 1.06584375 -1.043325l-1.3442812499999999 -0.412771875c-0.000375 0.001246875 -0.00046875 0.00121875 -0.00009375 0.000421875s0.00075 -0.001284375 0.00065625 -0.0011625c-0.00009375 0.000159375 -0.00121875 0.0017906250000000001 -0.0039375 0.004903125 -0.0028125 0.00316875 -0.007687500000000001 0.008221875 -0.015375000000000002 0.015009375 -0.034406250000000006 0.030262500000000005 -0.108375 0.0804375 -0.2595 0.145603125 -0.31603125 0.136228125 -0.7868437500000001 0.264965625 -1.51640625 0.461578125l0.36600000000000005 1.3578375Zm-0.65765625 -5.6038875c-0.030468750000000003 0.34805624999999996 -0.07865625 0.73310625 0.046125 1.09456875l1.32928125 -0.45883125c0.00290625 0.008484375 -0.00496875 -0.002915625 -0.0043125 -0.08272499999999999 0.00065625 -0.0916875 0.010875 -0.21365625 0.029812500000000002 -0.430303125l-1.40090625 -0.12270937500000001Zm1.7023125000000001 1.00464375c-0.147375 -0.154340625 -0.22818750000000002 -0.239859375 -0.28340625 -0.308278125 -0.04696875 -0.05821875 -0.0466875 -0.06998437499999999 -0.0435 -0.060628125000000005l-1.32928125 0.45883125c0.12609375 0.36525 0.4035 0.63440625 0.63890625 0.881015625l1.01728125 -0.9709406250000001Zm-0.26859374999999996 -1.2565875c0.0613125 -0.7002375000000001 0.11634375 -1.306134375 0.08840624999999999 -1.7699625 -0.028218749999999997 -0.467146875 -0.15103125 -1.010446875 -0.65521875 -1.3459125l-0.77896875 1.170778125c-0.05803125 -0.03860625 0.0105 -0.071428125 0.030468750000000003 0.259734375 0.020156249999999997 0.3344625 -0.0200625 0.81470625 -0.08559375000000001 1.5626437499999999l1.40090625 0.12271874999999999Zm-3.07134375 -1.21636875c0.68109375 -0.337246875 1.1220937500000001 -0.55365 1.44825 -0.66045 0.325875 -0.10670625 0.33046875 -0.03286875 0.2773125 -0.06827812500000001l0.77896875 -1.170778125c-0.49940624999999994 -0.33227812500000004 -1.0479375 -0.24339375000000002 -1.49390625 -0.097359375 -0.4456875 0.14595000000000002 -0.9951562500000001 0.419990625 -1.634625 0.736659375l0.624 1.26020625ZM13.9275 12.1303125c-0.206625 0.25603125 -0.37734375000000003 0.6241874999999999 -0.52134375 1.01596875 -0.1501875 0.40865625 -0.29362499999999997 0.906375 -0.42356249999999995 1.4673749999999999 -0.26025000000000004 1.1229375 -0.4753125 2.5365 -0.5785312499999999 4.07015625l1.4030624999999999 0.09440625c0.098625 -1.4656874999999998 0.30365625 -2.8041562499999997 0.54534375 -3.847125 0.12103124999999999 -0.52190625 0.249 -0.96065625 0.37359375 -1.2996562500000002 0.13078125000000002 -0.35578125 0.238125 -0.54646875 0.295875 -0.618l-1.0944375 -0.8831249999999999ZM2.62066875 19.02046875c0.617109375 -1.691625 1.718503125 -3.496875 3.089540625 -5.058 1.37326875 -1.56365625 2.981025 -2.8415625 4.5857906250000005 -3.5240625l-0.55040625 -1.294078125c-1.85353125 0.788296875 -3.625040625 2.219765625 -5.09199375 3.8901093749999998 -1.46919375 1.672875 -2.6689781249999998 3.6262499999999998 -3.354009375 5.504062500000001l1.3210781249999999 0.48196875Zm8.50914375 0.90140625H9.218475v1.40625h1.9113375v-1.40625Zm-1.9113375 0H5.15625v1.40625h4.062225v-1.40625ZM5.15625 19.921875H3.4843875000000004v1.40625H5.15625v-1.40625Zm4.7653125 0.703125c0 -0.84028125 0.31603125 -2.62940625 0.9516562499999999 -4.51153125 0.63834375 -1.8902812500000001 1.54828125 -3.7190625 2.64609375 -4.737375l-0.95625 -1.03096875c-1.36303125 1.264125 -2.364375 3.3705000000000003 -3.02221875 5.3184375C8.88031875 17.61946875 8.51535 19.57134375 8.51535 20.625H9.9215625Zm-8.621971875 -2.0865c-0.272175 0.7460625 -0.09045937500000001 1.4738437500000001 0.36140625 1.99396875 0.438459375 0.50465625 1.10925 0.79565625 1.823390625 0.79565625v-1.40625c-0.34147500000000003 0 -0.612328125 -0.1396875 -0.76185 -0.31171875000000004 -0.13610625 -0.15665625 -0.18870937499999998 -0.35165625 -0.10186875000000001 -0.5896875l-1.3210781249999999 -0.48196875Zm11.104471875 0.1453125c-0.0470625 0.69946875 -0.6125625 1.2380625 -1.2742499999999999 1.2380625v1.40625c1.44965625 0 2.5838437499999998 -1.16090625 2.6773124999999998 -2.54990625l-1.4030624999999999 -0.09440625ZM5.859375 20.625c0 -0.14446874999999998 0.039487499999999995 -0.41278125000000004 0.14389687499999998 -0.80596875 0.101128125 -0.38090625 0.25243125 -0.8399062500000001 0.44920312500000004 -1.3494375 0.393646875 -1.0194375 0.9579375 -2.21221875 1.6333593750000002 -3.3460312500000002 0.6779999999999999 -1.13821875 1.451259375 -2.1886875 2.254603125 -2.94553125 0.81721875 -0.7698750000000001 1.57509375 -1.152 2.2321874999999998 -1.152v-1.40625c-1.1865 0 -2.2773749999999997 0.6688125 -3.1965000000000003 1.5346875 -0.9328125 0.8788125 -1.783228125 2.0488125 -2.4984281249999998 3.249375 -0.717778125 1.2049687500000001 -1.31625 2.469375 -1.737065625 3.5591250000000003 -0.21045000000000003 0.5450625 -0.37929375 1.05365625 -0.49651875 1.495125C4.530178125 19.88728125 4.453125 20.296031250000002 4.453125 20.625h1.40625Z" fill="#000000" stroke-width="1.5"></path>
</svg>